HIERARCHY
ROOT joint_Root
{
	OFFSET 0.0 0.0 0.0
	CHANNELS 6 Xposition Yposition Zposition Zrotation Xrotation Yrotation 
	JOINT Hips
	{
		OFFSET -17.1583 93.1646 452.98
		CHANNELS 6 Xposition Yposition Zposition Zrotation Xrotation Yrotation 
		JOINT Spine
		{
			OFFSET 15.7357 0.0 0.0
			CHANNELS 6 Xposition Yposition Zposition Zrotation Xrotation Yrotation 
			JOINT Chest
			{
				OFFSET 8.98455 -0.406207 0.0
				CHANNELS 6 Xposition Yposition Zposition Zrotation Xrotation Yrotation 
				JOINT Neck
				{
					OFFSET 16.3773 0.0 0.0
					CHANNELS 6 Xposition Yposition Zposition Zrotation Xrotation Yrotation 
					JOINT Head
					{
						OFFSET 6.45672 0.0 0.0
						CHANNELS 6 Xposition Yposition Zposition Zrotation Xrotation Yrotation 
						End Site
						{
							OFFSET 0.0 0.0 0.0
						}
					}
				}
				JOINT Shoulder_L
				{
					OFFSET 12.9942 -0.242716 4.98039
					CHANNELS 6 Xposition Yposition Zposition Zrotation Xrotation Yrotation 
					JOINT UpperArm_L
					{
						OFFSET 5.34809 0.0 0.0
						CHANNELS 6 Xposition Yposition Zposition Zrotation Xrotation Yrotation 
						JOINT LowerArm_L
						{
							OFFSET 24.3286 1.87007e-05 0.0
							CHANNELS 6 Xposition Yposition Zposition Zrotation Xrotation Yrotation 
							JOINT Hand_L
							{
								OFFSET 22.2916 0.0 0.0
								CHANNELS 6 Xposition Yposition Zposition Zrotation Xrotation Yrotation 
								End Site
								{
									OFFSET 0.0 0.0 0.0
								}
							}
						}
					}
				}
				JOINT Shoulder_R
				{
					OFFSET 12.9945 -0.242716 -4.98039
					CHANNELS 6 Xposition Yposition Zposition Zrotation Xrotation Yrotation 
					JOINT UpperArm_R
					{
						OFFSET -5.34813 0.0 0.0
						CHANNELS 6 Xposition Yposition Zposition Zrotation Xrotation Yrotation 
						JOINT LowerArm_R
						{
							OFFSET -24.3289 0.000322201 0.0
							CHANNELS 6 Xposition Yposition Zposition Zrotation Xrotation Yrotation 
							JOINT Hand_R
							{
								OFFSET -22.2915 -0.000108084 0.0
								CHANNELS 6 Xposition Yposition Zposition Zrotation Xrotation Yrotation 
								End Site
								{
									OFFSET 0.0 0.0 0.0
								}
							}
						}
					}
				}
			}
		}
		JOINT UpperLeg_L
		{
			OFFSET -2.19248 -6.46944 0.0
			CHANNELS 6 Xposition Yposition Zposition Zrotation Xrotation Yrotation 
			JOINT LowerLeg_L
			{
				OFFSET 39.0811 0.0 -1.23785e-05
				CHANNELS 6 Xposition Yposition Zposition Zrotation Xrotation Yrotation 
				JOINT Foot_L
				{
					OFFSET 40.9854 0.0 -1.26872e-05
					CHANNELS 6 Xposition Yposition Zposition Zrotation Xrotation Yrotation 
					JOINT Toes_L
					{
						OFFSET 11.7543 0.0 0.0
						CHANNELS 6 Xposition Yposition Zposition Zrotation Xrotation Yrotation 
						End Site
						{
							OFFSET 0.0 0.0 0.0
						}
					}
				}
			}
		}
		JOINT UpperLeg_R
		{
			OFFSET -2.19251 6.46944 0.0
			CHANNELS 6 Xposition Yposition Zposition Zrotation Xrotation Yrotation 
			JOINT LowerLeg_R
			{
				OFFSET -39.0811 -0.00228153 -0.0401928
				CHANNELS 6 Xposition Yposition Zposition Zrotation Xrotation Yrotation 
				JOINT Foot_R
				{
					OFFSET -40.9854 0.0 0.0
					CHANNELS 6 Xposition Yposition Zposition Zrotation Xrotation Yrotation 
					JOINT Toes_R
					{
						OFFSET -11.7543 0.0 0.0
						CHANNELS 6 Xposition Yposition Zposition Zrotation Xrotation Yrotation 
						End Site
						{
							OFFSET 0.0 0.0 0.0
						}
					}
				}
			}
		}
	}
}
MOTION
Frames:	5
Frame Time:	0.0333333
0.000000 0.000000 0.000000 0.000000 0.000000 -0.000000 -1.309830 92.514700 -0.075098 87.513200 3.889360 4.607200 15.735700 0.000005 -0.000001 84.470000 86.059000 -83.379500 8.984550 -0.406207 -0.000000 0.088132 -0.832393 2.180220 16.377300 -0.000001 -0.000001 8.641240 2.052910 -2.853820 6.456720 -0.000001 -0.000000 -4.999780 1.151560 -1.439280 12.994200 -0.242716 4.980390 -93.550800 10.032400 -70.393900 5.348090 -0.000007 -0.000001 -69.562700 29.962700 -2.528300 24.328600 0.000019 0.000005 12.203000 28.450800 -24.415500 22.291600 -0.000001 0.000005 -5.268500 5.099880 5.116310 12.994500 -0.242716 -4.980390 87.399300 7.217210 -70.122500 -5.348130 -0.000001 -0.000004 -69.894700 28.852400 -2.961210 -24.328900 0.000322 -0.000009 1.850760 5.512280 -18.601900 -22.291500 -0.000108 -0.000004 -6.241310 5.218940 2.240010 -2.192480 -6.469440 -0.000000 -177.702000 0.959945 -0.119809 39.081100 -0.000007 -0.000012 0.244554 -0.606599 21.957600 40.985400 -0.000006 -0.000013 2.800370 6.827070 -72.534300 11.754300 -0.000000 0.000003 -0.000929 0.182014 -9.193500 -2.192510 6.469440 -0.000001 -176.132000 12.045700 -174.964000 -39.081100 -0.002282 -0.040193 0.063248 -0.231933 14.485000 -40.985400 0.000008 0.000006 1.372470 3.495880 -70.584200 -11.754300 -0.000006 -0.000006 -0.009382 0.266627 -5.742290
0.000000 0.000000 0.000000 0.000000 0.000000 -0.000000 -1.341890 92.530000 -0.129570 87.472500 3.874550 4.541280 15.735700 0.000005 -0.000001 84.182500 86.064600 -83.079700 8.984550 -0.406207 -0.000000 0.073689 -0.871584 2.204780 16.377300 -0.000001 -0.000001 8.475270 2.051420 -2.712340 6.456720 -0.000001 -0.000000 -5.130850 1.140910 -1.319360 12.994200 -0.242716 4.980390 -93.554800 10.021100 -70.353000 5.348090 -0.000007 -0.000001 -69.626400 29.963700 -2.463020 24.328600 0.000019 0.000005 12.214800 28.449400 -24.437900 22.291600 -0.000001 0.000005 -5.188830 5.099010 5.136250 12.994500 -0.242716 -4.980390 87.397100 7.200250 -70.064100 -5.348130 -0.000001 -0.000004 -69.230600 27.584400 -2.977440 -24.328900 0.000322 -0.000009 1.898330 5.494600 -19.102700 -22.291500 -0.000108 -0.000004 -6.578530 5.223000 2.136130 -2.192480 -6.469440 -0.000000 -177.666000 1.085980 -0.203572 39.081100 -0.000007 -0.000012 0.244756 -0.607743 21.936600 40.985400 -0.000006 -0.000013 2.744030 6.687530 -72.567300 11.754300 -0.000000 0.000003 -0.001151 0.185152 -9.065960 -2.192510 6.469440 -0.000001 -176.074000 12.084000 -175.028000 -39.081100 -0.002282 -0.040193 0.060237 -0.221799 14.389700 -40.985400 0.000008 0.000006 1.312720 3.564680 -70.506100 -11.754300 -0.000006 -0.000006 -0.009738 0.269340 -5.631340
0.000000 0.000000 0.000000 0.000000 0.000000 -0.000000 -1.374120 92.542600 -0.196512 87.436300 3.845070 4.414380 15.735700 0.000005 -0.000001 84.142300 86.091300 -83.031700 8.984550 -0.406207 -0.000000 0.019998 -0.872660 2.220110 16.377300 -0.000001 -0.000001 8.344220 1.988520 -2.515980 6.456720 -0.000001 -0.000000 -5.335980 1.068940 -1.123700 12.994200 -0.242716 4.980390 -93.534100 10.021100 -70.459200 5.348090 -0.000007 -0.000001 -69.712700 29.872500 -2.330520 24.328600 0.000019 0.000005 12.285200 28.485400 -24.541000 22.291600 -0.000001 0.000005 -5.257980 5.099890 5.116290 12.994500 -0.242716 -4.980390 87.395900 7.156740 -69.944700 -5.348130 -0.000001 -0.000004 -68.441500 25.576200 -2.973560 -24.328900 0.000322 -0.000009 2.035570 5.634880 -19.908900 -22.291500 -0.000108 -0.000004 -7.012930 5.221970 2.162870 -2.192480 -6.469440 -0.000000 -177.599000 1.037810 -0.390894 39.081100 -0.000007 -0.000012 0.242814 -0.603024 21.933200 40.985400 -0.000006 -0.000013 2.716260 6.697210 -72.464900 11.754300 -0.000000 0.000003 -0.000957 0.182419 -9.177020 -2.192510 6.469440 -0.000001 -175.994000 12.105800 -175.184000 -39.081100 -0.002282 -0.040193 0.058421 -0.215674 14.328500 -40.985400 0.000008 0.000006 1.255870 3.633990 -70.384200 -11.754300 -0.000006 -0.000006 -0.009612 0.268385 -5.670400
0.000000 0.000000 0.000000 0.000000 0.000000 -0.000000 -1.395340 92.566500 -0.280291 87.413000 3.850430 4.274800 15.735700 0.000005 -0.000001 83.739200 86.118500 -82.612800 8.984550 -0.406207 -0.000000 -0.039207 -0.923065 2.250950 16.377300 -0.000001 -0.000001 8.124420 1.941450 -2.266950 6.456720 -0.000001 -0.000000 -5.536370 1.011950 -0.889819 12.994200 -0.242716 4.980390 -93.527600 9.996420 -70.448500 5.348090 -0.000007 -0.000001 -69.833500 30.000300 -2.231550 24.328600 0.000019 0.000005 12.250400 28.379400 -24.551500 22.291600 -0.000001 0.000005 -5.291840 5.099360 5.128440 12.994500 -0.242716 -4.980390 87.424600 7.036590 -69.838000 -5.348130 -0.000001 -0.000004 -67.472400 23.081300 -2.895210 -24.328900 0.000322 -0.000009 2.199760 5.667140 -21.264800 -22.291500 -0.000108 -0.000004 -7.466290 5.217030 2.288830 -2.192480 -6.469440 -0.000000 -177.579000 1.113230 -0.555434 39.081100 -0.000007 -0.000012 0.244555 -0.609304 21.869400 40.985400 -0.000006 -0.000013 2.682020 6.636990 -72.454400 11.754300 -0.000000 0.000003 -0.001025 0.183385 -9.137780 -2.192510 6.469440 -0.000001 -175.928000 12.084900 -175.322000 -39.081100 -0.002282 -0.040193 0.055735 -0.207259 14.189400 -40.985400 0.000008 0.000006 1.220210 3.628470 -70.271400 -11.754300 -0.000006 -0.000006 -0.009857 0.270233 -5.594850
0.000000 0.000000 0.000000 0.000000 0.000000 -0.000000 -1.411050 92.581500 -0.356369 87.388600 3.903770 4.099450 15.735700 0.000005 -0.000001 83.126900 86.149300 -81.986600 8.984550 -0.406207 -0.000000 -0.108942 -0.999747 2.278210 16.377300 -0.000001 -0.000001 7.875760 1.841130 -1.972150 6.456720 -0.000001 -0.000000 -5.818960 0.929571 -0.564329 12.994200 -0.242716 4.980390 -93.512800 9.984340 -70.503200 5.348090 -0.000007 -0.000001 -69.919000 30.061600 -2.123950 24.328600 0.000019 0.000005 12.309000 28.390900 -24.650200 22.291600 -0.000001 0.000005 -5.337520 5.099980 5.114100 12.994500 -0.242716 -4.980390 87.430900 6.960100 -69.681600 -5.348130 -0.000001 -0.000004 -66.246600 20.074200 -2.783060 -24.328900 0.000322 -0.000009 2.314360 5.436070 -23.114300 -22.291500 -0.000108 -0.000004 -7.889510 5.207490 2.531250 -2.192480 -6.469440 -0.000000 -177.557000 1.278640 -0.794982 39.081100 -0.000007 -0.000012 0.240436 -0.599491 21.854600 40.985400 -0.000006 -0.000013 2.641050 6.541060 -72.359700 11.754300 -0.000000 0.000003 -0.001053 0.183780 -9.121730 -2.192510 6.469440 -0.000001 -175.863000 12.198100 -175.520000 -39.081100 -0.002282 -0.040193 0.055192 -0.206341 14.108200 -40.985400 0.000008 0.000006 1.241360 3.662900 -70.207500 -11.754300 -0.000006 -0.000006 -0.010017 0.271433 -5.545750
